<svg width="162" height="165" viewBox="0 0 162 165" fill="none" xmlns="http://www.w3.org/2000/svg">
<g filter="url(#filter0_ddii_515_590)">
<path d="M81 11C86.6448 11 92.1132 11.7434 97.317 13.1357L83.9232 26.5232C82.9071 27.5434 82.0109 28.6763 81.252 29.9H81C72.2778 29.9 63.7516 32.4864 56.4994 37.3322C49.2471 42.178 43.5947 49.0654 40.2569 57.1237C36.9191 65.1819 36.0458 74.0489 37.7474 82.6035C39.449 91.158 43.6491 99.0159 49.8166 105.183C55.9841 111.351 63.842 115.551 72.3965 117.253C80.9511 118.954 89.8181 118.081 97.8763 114.743C105.935 111.405 112.822 105.753 117.668 98.5006C122.514 91.2484 125.1 82.7222 125.1 74V73.748C126.318 72.992 127.441 72.0995 128.47 71.0705L141.864 57.683C143.257 62.8868 144 68.3552 144 74C144 108.795 115.795 137 81 137C46.2051 137 18 108.795 18 74C18 39.2051 46.2051 11 81 11ZM78.3918 42.6071C78.3918 47.9684 78.1272 53.4053 78.417 58.7603L75.015 62.1623C73.8447 63.3326 72.9164 64.7219 72.2831 66.2509C71.6498 67.7799 71.3238 69.4187 71.3238 71.0736C71.3238 72.7286 71.6498 74.3674 72.2831 75.8964C72.9164 77.4254 73.8447 78.8147 75.015 79.985C76.1853 81.1553 77.5745 82.0836 79.1036 82.7169C80.6326 83.3502 82.2714 83.6762 83.9263 83.6762C85.5813 83.6762 87.2201 83.3502 88.7491 82.7169C90.2781 82.0836 91.6674 81.1553 92.8377 79.985L96.2397 76.583C101.595 76.8728 107.025 76.6082 112.393 76.6082C111.895 82.5953 109.696 88.3153 106.054 93.0935C102.412 97.8716 97.4799 101.509 91.8389 103.576C86.1979 105.643 80.0834 106.053 74.2166 104.76C68.3499 103.466 62.9754 100.521 58.7273 96.2727C54.4791 92.0245 51.5344 86.6501 50.2405 80.7834C48.9465 74.9166 49.3572 68.8021 51.4243 63.1611C53.4913 57.5201 57.1283 52.5878 61.9065 48.946C66.6847 45.3042 72.4047 43.1048 78.3918 42.6071ZM121.975 11.8001C123.125 12.2769 124.108 13.0836 124.8 14.1186C125.492 15.1535 125.861 16.3701 125.862 17.615V29.144H137.385C138.631 29.1443 139.849 29.5139 140.884 30.2062C141.92 30.8984 142.727 31.8823 143.204 33.0333C143.681 34.1843 143.806 35.4508 143.563 36.6727C143.32 37.8946 142.72 39.017 141.839 39.8981L119.556 62.156C118.375 63.3376 116.773 64.0015 115.102 64.0019H99.9L88.3836 75.5246C87.2015 76.7067 85.5981 77.3709 83.9263 77.3709C82.2546 77.3709 80.6512 76.7067 79.4691 75.5246C78.287 74.3425 77.6228 72.7391 77.6228 71.0673C77.6228 69.3956 78.287 67.7922 79.4691 66.6101L90.9918 55.1V39.8918C90.9911 39.0635 91.1538 38.2432 91.4706 37.4778C91.7873 36.7124 92.2519 36.017 92.8377 35.4314L115.108 13.1609C115.989 12.2793 117.112 11.6789 118.334 11.4355C119.557 11.1922 120.824 11.3169 121.975 11.7938" fill="#C8A2C8"/>
</g>
<defs>
<filter id="filter0_ddii_515_590" x="0.315212" y="0.592903" width="161.37" height="164.208" filterUnits="userSpaceOnUse" color-interpolation-filters="sRGB">
<feFlood flood-opacity="0" result="BackgroundImageFix"/>
<feColorMatrix in="SourceAlpha" type="matrix" values="0 0 0 0 0 0 0 0 0 0 0 0 0 0 0 0 0 0 127 0" result="hardAlpha"/>
<feOffset dy="12.3721"/>
<feGaussianBlur stdDeviation="7.71435"/>
<feComposite in2="hardAlpha" operator="out"/>
<feColorMatrix type="matrix" values="0 0 0 0 0.784314 0 0 0 0 0.635294 0 0 0 0 0.784314 0 0 0 0.4 0"/>
<feBlend mode="normal" in2="BackgroundImageFix" result="effect1_dropShadow_515_590"/>
<feColorMatrix in="SourceAlpha" type="matrix" values="0 0 0 0 0 0 0 0 0 0 0 0 0 0 0 0 0 0 127 0" result="hardAlpha"/>
<feOffset dy="7.27769"/>
<feGaussianBlur stdDeviation="8.84239"/>
<feComposite in2="hardAlpha" operator="out"/>
<feColorMatrix type="matrix" values="0 0 0 0 0.784314 0 0 0 0 0.635294 0 0 0 0 0.784314 0 0 0 0.02 0"/>
<feBlend mode="normal" in2="effect1_dropShadow_515_590" result="effect2_dropShadow_515_590"/>
<feBlend mode="normal" in="SourceGraphic" in2="effect2_dropShadow_515_590" result="shape"/>
<feColorMatrix in="SourceAlpha" type="matrix" values="0 0 0 0 0 0 0 0 0 0 0 0 0 0 0 0 0 0 127 0" result="hardAlpha"/>
<feOffset dy="-5.09438"/>
<feGaussianBlur stdDeviation="2.98385"/>
<feComposite in2="hardAlpha" operator="arithmetic" k2="-1" k3="1"/>
<feColorMatrix type="matrix" values="0 0 0 0 0 0 0 0 0 0 0 0 0 0 0 0 0 0 0.27 0"/>
<feBlend mode="normal" in2="shape" result="effect3_innerShadow_515_590"/>
<feColorMatrix in="SourceAlpha" type="matrix" values="0 0 0 0 0 0 0 0 0 0 0 0 0 0 0 0 0 0 127 0" result="hardAlpha"/>
<feOffset dy="4.36661"/>
<feGaussianBlur stdDeviation="2.05"/>
<feComposite in2="hardAlpha" operator="arithmetic" k2="-1" k3="1"/>
<feColorMatrix type="matrix" values="0 0 0 0 1 0 0 0 0 1 0 0 0 0 1 0 0 0 0.38 0"/>
<feBlend mode="normal" in2="effect3_innerShadow_515_590" result="effect4_innerShadow_515_590"/>
</filter>
</defs>
</svg>
