<svg width="162" height="165" viewBox="0 0 162 165" fill="none" xmlns="http://www.w3.org/2000/svg">
<g filter="url(#filter0_ddii_515_555)">
<path fill-rule="evenodd" clip-rule="evenodd" d="M76.2624 11C61.1873 12.1359 47.019 18.639 36.329 29.329C25.639 40.019 19.1359 54.1873 18 69.2624H36.774C37.3962 69.2624 38.0122 69.3849 38.587 69.623C39.1618 69.8611 39.6841 70.2101 40.124 70.65C40.5639 71.0899 40.9129 71.6122 41.151 72.187C41.3891 72.7618 41.5116 73.3779 41.5116 74C41.5116 74.6222 41.3891 75.2382 41.151 75.813C40.9129 76.3878 40.5639 76.9101 40.124 77.35C39.6841 77.7899 39.1618 78.1389 38.587 78.377C38.0122 78.6151 37.3962 78.7376 36.774 78.7376H18C19.1359 93.8127 25.639 107.981 36.329 118.671C47.019 129.361 61.1873 135.864 76.2624 137V118.226C76.2624 116.97 76.7615 115.764 77.65 114.876C78.5385 113.988 79.7435 113.488 81 113.488C82.2565 113.488 83.4615 113.988 84.35 114.876C85.2385 115.764 85.7376 116.97 85.7376 118.226V137C100.813 135.864 114.981 129.361 125.671 118.671C136.361 107.981 142.864 93.8127 144 78.7376H125.226C123.97 78.7376 122.764 78.2385 121.876 77.35C120.988 76.4615 120.488 75.2565 120.488 74C120.488 72.7435 120.988 71.5385 121.876 70.65C122.764 69.7615 123.97 69.2624 125.226 69.2624H144C142.864 54.1873 136.361 40.019 125.671 29.329C114.981 18.639 100.813 12.1359 85.7376 11V29.774C85.7376 31.0305 85.2385 32.2355 84.35 33.124C83.4615 34.0125 82.2565 34.5116 81 34.5116C79.7435 34.5116 78.5385 34.0125 77.65 33.124C76.7615 32.2355 76.2624 31.0305 76.2624 29.774V11ZM63.6246 74C63.6246 71.3855 65.7477 69.2624 68.3622 69.2624H76.2624V61.3622C76.2624 60.1057 76.7615 58.9007 77.65 58.0122C78.5385 57.1237 79.7435 56.6246 81 56.6246C82.2565 56.6246 83.4615 57.1237 84.35 58.0122C85.2385 58.9007 85.7376 60.1057 85.7376 61.3622V69.2624H93.6378C94.8943 69.2624 96.0993 69.7615 96.9878 70.65C97.8763 71.5385 98.3754 72.7435 98.3754 74C98.3754 75.2565 97.8763 76.4615 96.9878 77.35C96.0993 78.2385 94.8943 78.7376 93.6378 78.7376H85.7376V86.6378C85.7376 87.8943 85.2385 89.0993 84.35 89.9878C83.4615 90.8763 82.2565 91.3754 81 91.3754C79.7435 91.3754 78.5385 90.8763 77.65 89.9878C76.7615 89.0993 76.2624 87.8943 76.2624 86.6378V78.7376H68.3622C67.7396 78.7393 67.1228 78.6179 66.5472 78.3804C65.9717 78.1429 65.4488 77.794 65.0085 77.3537C64.5682 76.9134 64.2193 76.3905 63.9818 75.815C63.7443 75.2394 63.6229 74.6226 63.6246 74Z" fill="#C8A2C8"/>
</g>
<defs>
<filter id="filter0_ddii_515_555" x="0.315212" y="0.592903" width="161.37" height="164.208" filterUnits="userSpaceOnUse" color-interpolation-filters="sRGB">
<feFlood flood-opacity="0" result="BackgroundImageFix"/>
<feColorMatrix in="SourceAlpha" type="matrix" values="0 0 0 0 0 0 0 0 0 0 0 0 0 0 0 0 0 0 127 0" result="hardAlpha"/>
<feOffset dy="12.3721"/>
<feGaussianBlur stdDeviation="7.71435"/>
<feComposite in2="hardAlpha" operator="out"/>
<feColorMatrix type="matrix" values="0 0 0 0 0.784314 0 0 0 0 0.635294 0 0 0 0 0.784314 0 0 0 0.4 0"/>
<feBlend mode="normal" in2="BackgroundImageFix" result="effect1_dropShadow_515_555"/>
<feColorMatrix in="SourceAlpha" type="matrix" values="0 0 0 0 0 0 0 0 0 0 0 0 0 0 0 0 0 0 127 0" result="hardAlpha"/>
<feOffset dy="7.27769"/>
<feGaussianBlur stdDeviation="8.84239"/>
<feComposite in2="hardAlpha" operator="out"/>
<feColorMatrix type="matrix" values="0 0 0 0 0.784314 0 0 0 0 0.635294 0 0 0 0 0.784314 0 0 0 0.02 0"/>
<feBlend mode="normal" in2="effect1_dropShadow_515_555" result="effect2_dropShadow_515_555"/>
<feBlend mode="normal" in="SourceGraphic" in2="effect2_dropShadow_515_555" result="shape"/>
<feColorMatrix in="SourceAlpha" type="matrix" values="0 0 0 0 0 0 0 0 0 0 0 0 0 0 0 0 0 0 127 0" result="hardAlpha"/>
<feOffset dy="-5.09438"/>
<feGaussianBlur stdDeviation="2.98385"/>
<feComposite in2="hardAlpha" operator="arithmetic" k2="-1" k3="1"/>
<feColorMatrix type="matrix" values="0 0 0 0 0 0 0 0 0 0 0 0 0 0 0 0 0 0 0.27 0"/>
<feBlend mode="normal" in2="shape" result="effect3_innerShadow_515_555"/>
<feColorMatrix in="SourceAlpha" type="matrix" values="0 0 0 0 0 0 0 0 0 0 0 0 0 0 0 0 0 0 127 0" result="hardAlpha"/>
<feOffset dy="4.36661"/>
<feGaussianBlur stdDeviation="2.05"/>
<feComposite in2="hardAlpha" operator="arithmetic" k2="-1" k3="1"/>
<feColorMatrix type="matrix" values="0 0 0 0 1 0 0 0 0 1 0 0 0 0 1 0 0 0 0.38 0"/>
<feBlend mode="normal" in2="effect3_innerShadow_515_555" result="effect4_innerShadow_515_555"/>
</filter>
</defs>
</svg>
