<svg width="18" height="19" viewBox="0 0 18 19" fill="none" xmlns="http://www.w3.org/2000/svg">
<path fill-rule="evenodd" clip-rule="evenodd" d="M8.99998 0.5C13.9706 0.5 18 4.52941 18 9.49998C18 14.4705 13.9706 18.5 8.99998 18.5C4.02945 18.5 0 14.4705 0 9.49998C0 4.52941 4.02945 0.5 8.99998 0.5ZM9.90195 8.59999H8.10198V14H9.90195V8.59999ZM9.00913 4.77498C8.35295 4.77498 7.87695 5.24833 7.87695 5.88751C7.87695 6.55255 8.34042 7.02501 9.00913 7.02501C9.65186 7.02501 10.127 6.55251 10.127 5.9C10.127 5.24837 9.65186 4.77498 9.00913 4.77498Z" fill="#717171"/>
</svg>
