<svg width="18" height="19" viewBox="0 0 18 19" fill="none" xmlns="http://www.w3.org/2000/svg">
<path d="M16.2439 13.8902C17.2098 13.8902 18 13.1 18 12.1341V2.47561C18 1.50976 17.2098 0.719513 16.2439 0.719513H7.02439C7.2878 1.24634 7.46341 1.86098 7.46341 2.47561H16.2439V12.1341H8.34146V13.8902M11.8537 5.10976V6.86585H6.58537V18.2805H4.82927V13.0122H3.07317V18.2805H1.31707V11.2561H0V6.86585C0 5.9 0.790244 5.10976 1.7561 5.10976H11.8537ZM5.70732 2.47561C5.70732 3.44146 4.91707 4.23171 3.95122 4.23171C2.98537 4.23171 2.19512 3.44146 2.19512 2.47561C2.19512 1.50976 2.98537 0.719513 3.95122 0.719513C4.91707 0.719513 5.70732 1.50976 5.70732 2.47561ZM13.6098 4.23171H15.3659V11.2561H13.6098V4.23171ZM10.9756 7.7439H12.7317V11.2561H10.9756V7.7439ZM8.34146 7.7439H10.0976V11.2561H8.34146V7.7439Z" fill="#008CFF"/>
</svg>
