<svg width="20" height="19" viewBox="0 0 20 19" fill="none" xmlns="http://www.w3.org/2000/svg">
<path d="M3.86969 15.9788L1.64462 18.2038C1.33827 18.5102 0.987418 18.5789 0.592064 18.4099C0.196711 18.2409 -0.000643373 17.9384 1.57561e-06 17.5025V2.43485C1.57561e-06 1.90276 0.189616 1.44743 0.568846 1.06884C0.948076 0.69026 1.40341 0.500645 1.93485 0.5H17.4136C17.9457 0.5 18.4013 0.689615 18.7806 1.06884C19.1598 1.44807 19.3491 1.90341 19.3485 2.43485V14.0439C19.3485 14.576 19.1592 15.0317 18.7806 15.4109C18.402 15.7901 17.9463 15.9794 17.4136 15.9788H3.86969ZM9.67423 13.0765C9.94833 13.0765 10.1783 12.9836 10.364 12.7979C10.5497 12.6121 10.6423 12.3825 10.6417 12.1091C10.641 11.8356 10.5481 11.606 10.363 11.4203C10.1779 11.2345 9.94833 11.1416 9.67423 11.1416C9.40012 11.1416 9.17052 11.2345 8.98542 11.4203C8.80032 11.606 8.70745 11.8356 8.70681 12.1091C8.70616 12.3825 8.79903 12.6125 8.98542 12.7988C9.17181 12.9852 9.40141 13.0778 9.67423 13.0765ZM9.67423 9.2068C9.94833 9.2068 10.1783 9.11393 10.364 8.92819C10.5497 8.74244 10.6423 8.51284 10.6417 8.23938V4.36969C10.6417 4.09559 10.5488 3.86599 10.363 3.68089C10.1773 3.49579 9.94769 3.40291 9.67423 3.40227C9.40077 3.40162 9.17117 3.4945 8.98542 3.68089C8.79968 3.86728 8.70681 4.09688 8.70681 4.36969V8.23938C8.70681 8.51348 8.79968 8.74341 8.98542 8.92915C9.17117 9.1149 9.40077 9.20745 9.67423 9.2068Z" fill="#717171"/>
</svg>
