<svg width="13" height="18" viewBox="0 0 13 18" fill="none" xmlns="http://www.w3.org/2000/svg">
<path d="M0.199951 17.4H12.8V14.4C12.7983 13.2866 12.3331 12.2192 11.5065 11.4319C10.6798 10.6446 9.55904 10.2016 8.38995 10.2H4.60995C3.44086 10.2016 2.32013 10.6446 1.49345 11.4319C0.666776 12.2192 0.201618 13.2866 0.199951 14.4V17.4ZM2.08995 4.80001C2.08995 5.63069 2.34859 6.44271 2.83317 7.1334C3.31775 7.82409 4.00649 8.36241 4.81232 8.6803C5.61814 8.99819 6.50484 9.08136 7.3603 8.9193C8.21576 8.75725 9.00154 8.35723 9.61829 7.76985C10.235 7.18247 10.6551 6.43411 10.8252 5.61939C10.9954 4.80467 10.908 3.96019 10.5743 3.19274C10.2405 2.42529 9.67524 1.76934 8.95002 1.30783C8.2248 0.846332 7.37217 0.600006 6.49995 0.600006C5.33035 0.600006 4.20865 1.0425 3.38161 1.83016C2.55457 2.61781 2.08995 3.6861 2.08995 4.80001Z" fill="white"/>
</svg>
