<svg width="18" height="19" viewBox="0 0 18 19" fill="none" xmlns="http://www.w3.org/2000/svg">
    <path fill-rule="evenodd" clip-rule="evenodd" d="M8.98329 2.42891C8.44581 2.41921 7.9117 2.51558 7.41152 2.71253C6.91133 2.90948 6.4549 3.20313 6.06833 3.57668C5.68177 3.95023 5.37266 4.39634 5.1587 4.88949C4.94474 5.38264 4.83013 5.91313 4.82143 6.45063V12.0718C4.82143 12.4128 4.68597 12.7398 4.44485 12.9809C4.20373 13.222 3.87671 13.3575 3.53571 13.3575H1.92857C1.41708 13.3575 0.926543 13.1543 0.564865 12.7926C0.203188 12.4309 0 11.9404 0 11.4289V8.85748C0 8.34599 0.203188 7.85545 0.564865 7.49378C0.926543 7.1321 1.41708 6.92891 1.92857 6.92891H2.89286V6.42748C2.90459 5.63727 3.07187 4.85712 3.38515 4.13157C3.69843 3.40601 4.15156 2.74928 4.71868 2.19888C5.2858 1.64848 5.95579 1.21518 6.69039 0.923744C7.42498 0.632306 8.20979 0.488432 9 0.50034C9.79021 0.488432 10.575 0.632306 11.3096 0.923744C12.0442 1.21518 12.7142 1.64848 13.2813 2.19888C13.8484 2.74928 14.3016 3.40601 14.6149 4.13157C14.9281 4.85712 15.0954 5.63727 15.1071 6.42748V6.92891H16.0714C16.5829 6.92891 17.0735 7.1321 17.4351 7.49378C17.7968 7.85545 18 8.34599 18 8.85748V11.4289C18 11.9404 17.7968 12.4309 17.4351 12.7926C17.0735 13.1543 16.5829 13.3575 16.0714 13.3575H15.1071V14.0003C15.1073 14.8692 14.7876 15.7076 14.2089 16.3558C13.6303 17.0039 12.8333 17.4163 11.97 17.5142C11.8023 17.8135 11.5579 18.0627 11.2618 18.2361C10.9657 18.4094 10.6288 18.5006 10.2857 18.5003H8.35714C7.84565 18.5003 7.35511 18.2972 6.99344 17.9355C6.63176 17.5738 6.42857 17.0833 6.42857 16.5718C6.42857 16.0603 6.63176 15.5697 6.99344 15.2081C7.35511 14.8464 7.84565 14.6432 8.35714 14.6432H10.2857C10.9826 14.6432 11.5933 15.0122 11.9314 15.5663C12.2858 15.4849 12.6021 15.2857 12.8286 15.0012C13.0551 14.7168 13.1785 14.364 13.1786 14.0003V6.44934C13.1698 5.90908 13.0539 5.37593 12.8378 4.88071C12.6217 4.38548 12.3095 3.93801 11.9194 3.56416C11.5293 3.1903 11.069 2.89748 10.565 2.70262C10.061 2.50777 9.52343 2.41474 8.98329 2.42891Z" fill="#717171"/>
</svg>
