<svg width="18" height="19" viewBox="0 0 18 19" fill="none" xmlns="http://www.w3.org/2000/svg">
<path d="M9 0.5C7.82308 0.5 6.92308 1.4 6.92308 2.57692V6.73077C6.92308 7.90769 7.82308 8.80769 9 8.80769H13.1538L15.9231 11.5769V8.80769C17.1 8.80769 18 7.90769 18 6.73077V2.57692C18 1.4 17.1 0.5 15.9231 0.5H9ZM11.8994 2.57692H13.0888L14.2574 6.73077H13.2189L12.9372 5.69231H11.8987L11.6398 6.73077H10.7308L11.8994 2.57692ZM12.4615 3.26923C12.3923 3.54615 12.3148 3.884 12.2448 4.09169L12.051 5H12.8728L12.6775 4.091C12.5398 3.884 12.4615 3.54615 12.4615 3.26923ZM2.07692 7.42308C0.9 7.42308 0 8.32308 0 9.5V13.6538C0 14.8308 0.9 15.7308 2.07692 15.7308V18.5L4.84615 15.7308H9C10.1769 15.7308 11.0769 14.8308 11.0769 13.6538V9.5H9C7.68462 9.5 6.642 8.6 6.29585 7.42308H2.07692ZM5.25738 9.43492C6.43431 9.43492 6.98815 10.4042 6.98815 11.5118C6.98815 12.4811 6.65515 13.0958 6.10131 13.3728C6.37823 13.5112 6.70638 13.5846 7.05254 13.6538L6.79362 14.3462C6.309 14.2077 5.80638 13.9917 5.32177 13.7833C5.25254 13.7141 5.13138 13.7189 5.06215 13.7189C4.23138 13.6497 3.46154 12.9615 3.46154 11.5769C3.46154 10.4 4.14969 9.43492 5.25738 9.43492ZM5.25738 10.1923C4.70354 10.1923 4.43492 10.8154 4.43492 11.5769C4.43492 12.4077 4.70354 12.9615 5.25738 12.9615C5.81123 12.9615 6.10062 12.3385 6.10062 11.5769C6.10062 10.8154 5.81123 10.1923 5.25738 10.1923Z" fill="#717171"/>
</svg>
