<svg width="15" height="17" viewBox="0 0 15 17" fill="none" xmlns="http://www.w3.org/2000/svg">
<path d="M7.49994 0.833328C5.98378 0.833328 4.52973 1.43562 3.45765 2.5077C2.38556 3.57978 1.78327 5.03384 1.78327 6.54999V9.43119C1.78339 9.55788 1.75403 9.68286 1.69752 9.79625L0.295306 12.5999C0.226809 12.7368 0.194465 12.889 0.201347 13.042C0.208229 13.195 0.254107 13.3437 0.334624 13.474C0.415142 13.6042 0.527625 13.7118 0.66139 13.7863C0.795156 13.8609 0.945763 13.9 1.09891 13.9H13.901C14.0541 13.9 14.2047 13.8609 14.3385 13.7863C14.4723 13.7118 14.5847 13.6042 14.6653 13.474C14.7458 13.3437 14.7917 13.195 14.7985 13.042C14.8054 12.889 14.7731 12.7368 14.7046 12.5999L13.3032 9.79625C13.2464 9.68293 13.2167 9.55795 13.2166 9.43119V6.54999C13.2166 5.03384 12.6143 3.57978 11.5422 2.5077C10.4701 1.43562 9.01609 0.833328 7.49994 0.833328ZM7.49994 16.35C6.99307 16.3503 6.4986 16.1933 6.08467 15.9008C5.67074 15.6083 5.35773 15.1945 5.18877 14.7167H9.81111C9.64215 15.1945 9.32914 15.6083 8.91521 15.9008C8.50128 16.1933 8.0068 16.3503 7.49994 16.35Z" fill="white"/>
</svg>
