<svg width="18" height="19" viewBox="0 0 18 19" fill="none" xmlns="http://www.w3.org/2000/svg">
<path d="M6.12 8.555L8.055 6.5975L6.795 5.315L5.805 6.305L4.545 5.045L5.5125 4.055L4.5 3.0425L2.5425 5L6.12 8.555ZM13.5 15.9575L15.4575 14L14.445 12.9875L13.455 13.955L12.195 12.695L13.1625 11.705L11.88 10.445L9.945 12.38L13.5 15.9575ZM12.8025 4.4825L14.0625 5.7425L15.3225 4.4825L14.04 3.2L12.8025 4.4825ZM4.725 17.6H0.9V13.775L4.8375 9.8375L0 5L4.5 0.5L9.36 5.36L12.7575 1.94C12.9375 1.76 13.14 1.625 13.365 1.535C13.59 1.445 13.8225 1.4 14.0625 1.4C14.3025 1.4 14.535 1.445 14.76 1.535C14.985 1.625 15.1875 1.76 15.3675 1.94L16.56 3.155C16.74 3.335 16.875 3.5375 16.965 3.7625C17.055 3.9875 17.1 4.22 17.1 4.46C17.1 4.7 17.055 4.9289 16.965 5.1467C16.875 5.3645 16.74 5.5631 16.56 5.7425L13.1625 9.1625L18 14L13.5 18.5L8.6625 13.6625L4.725 17.6Z" fill="#717171"/>
</svg>
