<svg width="14" height="17" viewBox="0 0 14 17" fill="none" xmlns="http://www.w3.org/2000/svg">
<path d="M6.94322 6.08503L5.56472 7.27211C5.74694 7.87074 6.00148 8.44687 6.32314 8.98874C6.65867 9.52666 7.06296 10.0222 7.52663 10.4638L9.31185 9.93585C10.312 9.63988 11.4038 9.94385 12.0689 10.7038L13.0856 11.8653C13.4973 12.3315 13.7037 12.9333 13.6611 13.5431C13.6185 14.1529 13.3302 14.7228 12.8573 15.1321C11.1987 16.5848 8.6451 17.076 6.7332 15.6345C5.0521 14.3654 3.63021 12.8087 2.53934 11.0429C1.4457 9.28591 0.713486 7.34378 0.382409 5.3219C0.0156967 3.04693 1.75091 1.2263 3.91451 0.605564C5.20467 0.2344 6.58151 0.871138 7.0549 2.05822L7.6133 3.45809C7.98002 4.3796 7.71665 5.41949 6.94322 6.08503Z" fill="white"/>
</svg>
