<svg width="63" height="63" viewBox="0 0 63 63" fill="none" xmlns="http://www.w3.org/2000/svg">
<circle cx="31.5" cy="31.5" r="31.5" fill="white"/>
<g clip-path="url(#clip0_261_576)">
<path d="M47.0597 33.3922C47.5611 32.8901 47.8428 32.2096 47.8428 31.5001C47.8428 30.7905 47.5611 30.11 47.0597 29.608L36.9638 19.5066C36.4615 19.0044 35.7802 18.7222 35.0699 18.7222C34.3595 18.7222 33.6783 19.0044 33.176 19.5066C32.6737 20.0089 32.3915 20.6902 32.3915 21.4005C32.3915 22.1109 32.6737 22.7921 33.176 23.2944L38.7024 28.8226H18.1124C17.4023 28.8226 16.7212 29.1046 16.2191 29.6068C15.717 30.1089 15.4349 30.7899 15.4349 31.5001C15.4349 32.2102 15.717 32.8912 16.2191 33.3933C16.7212 33.8955 17.4023 34.1776 18.1124 34.1776H38.7024L33.176 39.7039C32.9273 39.9526 32.73 40.2479 32.5954 40.5728C32.4608 40.8978 32.3915 41.2461 32.3915 41.5978C32.3915 41.9495 32.4608 42.2978 32.5954 42.6228C32.73 42.9477 32.9273 43.243 33.176 43.4917C33.4247 43.7404 33.72 43.9377 34.0449 44.0723C34.3699 44.2069 34.7182 44.2762 35.0699 44.2762C35.4216 44.2762 35.7699 44.2069 36.0948 44.0723C36.4198 43.9377 36.7151 43.7404 36.9638 43.4917L47.0597 33.3922Z" fill="#550000"/>
</g>
<defs>
<clipPath id="clip0_261_576">
<rect width="42.84" height="42.84" fill="white" transform="matrix(0 1 -1 0 52.9199 10.0801)"/>
</clipPath>
</defs>
</svg>
