<svg width="12" height="14" viewBox="0 0 12 14" fill="none" xmlns="http://www.w3.org/2000/svg">
<path d="M6 0C4.54184 0.00172024 3.14389 0.581735 2.11282 1.61281C1.08174 2.64389 0.501724 4.04184 0.500003 5.5C0.498663 6.69155 0.887857 7.8507 1.608 8.8C1.608 8.8 1.758 8.9975 1.7825 9.026L6 14L10.2195 9.0235C10.2415 8.997 10.392 8.8 10.392 8.8L10.3925 8.7985C11.1122 7.84954 11.5012 6.69098 11.5 5.5C11.4983 4.04184 10.9183 2.64389 9.88719 1.61281C8.85611 0.581735 7.45817 0.00172024 6 0ZM6 7.5C5.60444 7.5 5.21776 7.3827 4.88886 7.16294C4.55996 6.94318 4.30362 6.63082 4.15224 6.26537C4.00087 5.89991 3.96126 5.49778 4.03843 5.10982C4.1156 4.72186 4.30608 4.36549 4.58579 4.08579C4.86549 3.80608 5.22186 3.6156 5.60982 3.53843C5.99778 3.46126 6.39992 3.50087 6.76537 3.65224C7.13082 3.80362 7.44318 4.05996 7.66294 4.38886C7.88271 4.71776 8 5.10444 8 5.5C7.99934 6.03023 7.78842 6.53855 7.41349 6.91348C7.03856 7.28841 6.53023 7.49934 6 7.5Z" fill="white"/>
</svg>
