<svg width="14" height="11" viewBox="0 0 14 11" fill="none" xmlns="http://www.w3.org/2000/svg">
<path d="M12.3333 2.83341L6.99992 6.16675L1.66659 2.83341V1.50008L6.99992 4.83342L12.3333 1.50008M12.3333 0.166748H1.66659C0.926585 0.166748 0.333252 0.760081 0.333252 1.50008V9.50008C0.333252 9.8537 0.473728 10.1928 0.723776 10.4429C0.973825 10.6929 1.31296 10.8334 1.66659 10.8334H12.3333C12.6869 10.8334 13.026 10.6929 13.2761 10.4429C13.5261 10.1928 13.6666 9.8537 13.6666 9.50008V1.50008C13.6666 1.14646 13.5261 0.807321 13.2761 0.557272C13.026 0.307224 12.6869 0.166748 12.3333 0.166748Z" fill="white"/>
</svg>
