<svg width="71" height="73" viewBox="0 0 71 73" fill="none" xmlns="http://www.w3.org/2000/svg">
<g filter="url(#filter0_ddii_515_507)">
<path fill-rule="evenodd" clip-rule="evenodd" d="M13 30.5C13 24.5326 15.3705 18.8097 19.5901 14.5901C23.8097 10.3705 29.5326 8 35.5 8C41.4674 8 47.1903 10.3705 51.4099 14.5901C55.6295 18.8097 58 24.5326 58 30.5C58 36.4674 55.6295 42.1903 51.4099 46.4099C47.1903 50.6295 41.4674 53 35.5 53C29.5326 53 23.8097 50.6295 19.5901 46.4099C15.3705 42.1903 13 36.4674 13 30.5ZM34.216 40.13L47.17 23.936L44.83 22.064L33.784 35.867L25.96 29.348L24.04 31.652L34.216 40.13Z" fill="#C8A2C8"/>
</g>
<defs>
<filter id="filter0_ddii_515_507" x="0.64872" y="0.731552" width="69.7026" height="71.6849" filterUnits="userSpaceOnUse" color-interpolation-filters="sRGB">
<feFlood flood-opacity="0" result="BackgroundImageFix"/>
<feColorMatrix in="SourceAlpha" type="matrix" values="0 0 0 0 0 0 0 0 0 0 0 0 0 0 0 0 0 0 127 0" result="hardAlpha"/>
<feOffset dy="8.64081"/>
<feGaussianBlur stdDeviation="5.3878"/>
<feComposite in2="hardAlpha" operator="out"/>
<feColorMatrix type="matrix" values="0 0 0 0 0.784314 0 0 0 0 0.635294 0 0 0 0 0.784314 0 0 0 0.4 0"/>
<feBlend mode="normal" in2="BackgroundImageFix" result="effect1_dropShadow_515_507"/>
<feColorMatrix in="SourceAlpha" type="matrix" values="0 0 0 0 0 0 0 0 0 0 0 0 0 0 0 0 0 0 127 0" result="hardAlpha"/>
<feOffset dy="5.08283"/>
<feGaussianBlur stdDeviation="6.17564"/>
<feComposite in2="hardAlpha" operator="out"/>
<feColorMatrix type="matrix" values="0 0 0 0 0.784314 0 0 0 0 0.635294 0 0 0 0 0.784314 0 0 0 0.02 0"/>
<feBlend mode="normal" in2="effect1_dropShadow_515_507" result="effect2_dropShadow_515_507"/>
<feBlend mode="normal" in="SourceGraphic" in2="effect2_dropShadow_515_507" result="shape"/>
<feColorMatrix in="SourceAlpha" type="matrix" values="0 0 0 0 0 0 0 0 0 0 0 0 0 0 0 0 0 0 127 0" result="hardAlpha"/>
<feOffset dy="-3.55798"/>
<feGaussianBlur stdDeviation="2.08396"/>
<feComposite in2="hardAlpha" operator="arithmetic" k2="-1" k3="1"/>
<feColorMatrix type="matrix" values="0 0 0 0 0 0 0 0 0 0 0 0 0 0 0 0 0 0 0.27 0"/>
<feBlend mode="normal" in2="shape" result="effect3_innerShadow_515_507"/>
<feColorMatrix in="SourceAlpha" type="matrix" values="0 0 0 0 0 0 0 0 0 0 0 0 0 0 0 0 0 0 127 0" result="hardAlpha"/>
<feOffset dy="3.0497"/>
<feGaussianBlur stdDeviation="1.01657"/>
<feComposite in2="hardAlpha" operator="arithmetic" k2="-1" k3="1"/>
<feColorMatrix type="matrix" values="0 0 0 0 1 0 0 0 0 1 0 0 0 0 1 0 0 0 0.25 0"/>
<feBlend mode="normal" in2="effect3_innerShadow_515_507" result="effect4_innerShadow_515_507"/>
</filter>
</defs>
</svg>
