<svg width="20" height="20" viewBox="0 0 20 20" fill="none" xmlns="http://www.w3.org/2000/svg">
<path d="M15.303 0.25H4.697C3.51758 0.25 2.38647 0.718522 1.5525 1.5525C0.718522 2.38647 0.25 3.51758 0.25 4.697V15.303C0.25 16.4824 0.718522 17.6135 1.5525 18.4475C2.38647 19.2815 3.51758 19.75 4.697 19.75H15.303C16.4824 19.75 17.6135 19.2815 18.4475 18.4475C19.2815 17.6135 19.75 16.4824 19.75 15.303V4.697C19.75 3.51758 19.2815 2.38647 18.4475 1.5525C17.6135 0.718522 16.4824 0.25 15.303 0.25ZM6.843 15.992C6.84614 16.0464 6.83811 16.1009 6.81942 16.1521C6.80072 16.2034 6.77176 16.2502 6.7343 16.2898C6.69684 16.3294 6.65167 16.361 6.60158 16.3825C6.55149 16.404 6.49752 16.4151 6.443 16.415H4.663C4.55566 16.4124 4.45362 16.3678 4.37883 16.2907C4.30403 16.2137 4.26244 16.1104 4.263 16.003V8.6C4.26153 8.54655 4.27079 8.49335 4.29023 8.44355C4.30967 8.39374 4.3389 8.34834 4.3762 8.31002C4.41349 8.2717 4.45808 8.24125 4.50734 8.22047C4.5566 8.19968 4.60953 8.18898 4.663 8.189H6.443C6.49647 8.18898 6.5494 8.19968 6.59866 8.22047C6.64792 8.24125 6.69251 8.2717 6.7298 8.31002C6.7671 8.34834 6.79633 8.39374 6.81577 8.44355C6.83521 8.49335 6.84447 8.54655 6.843 8.6V15.992ZM5.52 6.632C5.32729 6.63056 5.13674 6.59117 4.95925 6.51608C4.78176 6.441 4.62079 6.33169 4.48554 6.1944C4.35029 6.05711 4.24341 5.89452 4.171 5.71593C4.09858 5.53733 4.06206 5.34621 4.0635 5.1535C4.06494 4.96079 4.10433 4.77024 4.17942 4.59275C4.2545 4.41526 4.36381 4.25429 4.5011 4.11904C4.63839 3.98379 4.80098 3.87691 4.97957 3.8045C5.15817 3.73208 5.34929 3.69556 5.542 3.697C5.92452 3.70944 6.28703 3.87087 6.55219 4.14686C6.81734 4.42284 6.96415 4.79152 6.96128 5.17423C6.9584 5.55694 6.80609 5.92337 6.53682 6.19535C6.26755 6.46732 5.90266 6.6233 5.52 6.63M16.337 15.98C16.3365 16.081 16.2969 16.178 16.2264 16.2503C16.1558 16.3227 16.06 16.3649 15.959 16.368H14.08C13.9788 16.3649 13.8828 16.3226 13.8123 16.25C13.7418 16.1774 13.7022 16.0802 13.702 15.979V12.555C13.702 12.044 13.858 10.332 12.346 10.332C11.167 10.332 10.934 11.532 10.889 12.066V16.057C10.889 16.1584 10.8496 16.2558 10.779 16.3286C10.7085 16.4014 10.6123 16.4439 10.511 16.447H8.688C8.58474 16.4467 8.4858 16.4055 8.41287 16.3324C8.33995 16.2593 8.299 16.1603 8.299 16.057V8.564C8.30212 8.46266 8.34458 8.36652 8.41739 8.29595C8.49019 8.22539 8.58761 8.18595 8.689 8.186H10.511C10.6124 8.18595 10.7098 8.22539 10.7826 8.29595C10.8554 8.36652 10.8979 8.46266 10.901 8.564V9.209C11.167 8.81962 11.5343 8.51027 11.9633 8.3143C12.3922 8.11834 12.8665 8.0432 13.335 8.097C16.37 8.097 16.359 10.932 16.359 12.544L16.337 15.98Z" fill="white"/>
</svg>
